<?xml version="1.0" encoding="utf-8"?>
<!-- Generator: Adobe Illustrator 17.1.0, SVG Export Plug-In . SVG Version: 6.00 Build 0)  -->
<!DOCTYPE svg PUBLIC "-//W3C//DTD SVG 1.1//EN" "http://www.w3.org/Graphics/SVG/1.1/DTD/svg11.dtd">
<svg version="1.1" id="Layer_1" xmlns="http://www.w3.org/2000/svg" xmlns:xlink="http://www.w3.org/1999/xlink" x="0px" y="0px"
	 viewBox="0 0 50 50" enable-background="new 0 0 50 50" xml:space="preserve">
<path fill="none" stroke="#F47731" stroke-width="2" stroke-miterlimit="10" d="M46.9,47.7H3c-0.5,0-0.9-0.4-0.9-0.9V3.2
	c0-0.5,0.4-0.9,0.9-0.9h44c0.5,0,0.9,0.4,0.9,0.9v43.6C47.8,47.2,47.4,47.7,46.9,47.7z"/>
<path fill="none" stroke="#F47731" stroke-width="2" stroke-miterlimit="10" d="M28.3,30.3h-6.7c-0.1,0-0.1-0.1-0.1-0.1v-6.4
	c0-0.1,0.1-0.1,0.1-0.1h6.7c0.1,0,0.1,0.1,0.1,0.1v6.4C28.5,30.3,28.4,30.3,28.3,30.3z"/>
<path fill="none" stroke="#F47731" stroke-width="2" stroke-miterlimit="10" d="M13.3,30.3H6.6c-0.1,0-0.1-0.1-0.1-0.1v-6.4
	c0-0.1,0.1-0.1,0.1-0.1h6.7c0.1,0,0.1,0.1,0.1,0.1v6.4C13.5,30.3,13.4,30.3,13.3,30.3z"/>
<path fill="none" stroke="#F47731" stroke-width="2" stroke-miterlimit="10" d="M43.3,30.3h-6.7c-0.1,0-0.1-0.1-0.1-0.1v-6.4
	c0-0.1,0.1-0.1,0.1-0.1h6.7c0.1,0,0.1,0.1,0.1,0.1v6.4C43.5,30.3,43.4,30.3,43.3,30.3z"/>
<path fill="none" stroke="#F47731" stroke-width="2" stroke-miterlimit="10" d="M28.3,44.3h-6.7c-0.1,0-0.1-0.1-0.1-0.1v-6.4
	c0-0.1,0.1-0.1,0.1-0.1h6.7c0.1,0,0.1,0.1,0.1,0.1v6.4C28.5,44.3,28.4,44.3,28.3,44.3z"/>
<path fill="none" stroke="#F47731" stroke-width="2" stroke-miterlimit="10" d="M13.3,44.3H6.6c-0.1,0-0.1-0.1-0.1-0.1v-6.4
	c0-0.1,0.1-0.1,0.1-0.1h6.7c0.1,0,0.1,0.1,0.1,0.1v6.4C13.5,44.3,13.4,44.3,13.3,44.3z"/>
<path fill="none" stroke="#F47731" stroke-width="2" stroke-miterlimit="10" d="M43.3,44.3h-6.7c-0.1,0-0.1-0.1-0.1-0.1v-6.4
	c0-0.1,0.1-0.1,0.1-0.1h6.7c0.1,0,0.1,0.1,0.1,0.1v6.4C43.5,44.3,43.4,44.3,43.3,44.3z"/>
<path fill="none" stroke="#F47731" stroke-width="2" stroke-miterlimit="10" d="M28.3,11.9h-6.7c-0.1,0-0.1,0-0.1-0.1V7.7
	c0-0.1,0.1-0.1,0.1-0.1h6.7c0.1,0,0.1,0,0.1,0.1v4.1C28.5,11.8,28.4,11.9,28.3,11.9z"/>
<path fill="none" stroke="#F47731" stroke-width="2" stroke-miterlimit="10" d="M13.3,11.9H6.6c-0.1,0-0.1,0-0.1-0.1V7.7
	c0-0.1,0.1-0.1,0.1-0.1h6.7c0.1,0,0.1,0,0.1,0.1v4.1C13.5,11.8,13.4,11.9,13.3,11.9z"/>
<path fill="none" stroke="#F47731" stroke-width="2" stroke-miterlimit="10" d="M43.3,11.9h-6.7c-0.1,0-0.1,0-0.1-0.1V7.7
	c0-0.1,0.1-0.1,0.1-0.1h6.7c0.1,0,0.1,0,0.1,0.1v4.1C43.5,11.8,43.4,11.9,43.3,11.9z"/>
</svg>
