<?xml version="1.0" encoding="utf-8"?>
<!-- Generator: Adobe Illustrator 17.1.0, SVG Export Plug-In . SVG Version: 6.00 Build 0)  -->
<!DOCTYPE svg PUBLIC "-//W3C//DTD SVG 1.1//EN" "http://www.w3.org/Graphics/SVG/1.1/DTD/svg11.dtd">
<svg version="1.1" id="Layer_1" xmlns="http://www.w3.org/2000/svg" xmlns:xlink="http://www.w3.org/1999/xlink" x="0px" y="0px"
	 viewBox="0 0 300 100" enable-background="new 0 0 300 100" xml:space="preserve">
<rect fill="#413950" width="300" height="100"/>
<rect x="22.3" y="15.3" fill="none" width="270" height="64.3"/>
<g>
	<path fill="#F47731" d="M27.8,59.9c0.1-0.4,0.6-0.6,1-0.4c1.6,0.8,3.8,1.4,6.1,1.4c3.3,0,5.2-1.6,5.2-3.9c0-2.1-1.4-3.4-5-4.7
		c-4.7-1.7-7.6-4.2-7.6-8.2c0-4.6,3.9-8.1,10-8.1c2.7,0,4.8,0.5,6.2,1.2c0.3,0.1,0.5,0.5,0.4,0.8l-0.9,2.8c-0.1,0.4-0.6,0.6-1,0.4
		c-1.1-0.5-2.8-1-4.9-1c-3.3,0-4.7,1.8-4.7,3.4c0,2.2,1.6,3.2,5.4,4.7c4.9,1.8,7.3,4.3,7.3,8.4c0,4.5-3.4,8.5-10.8,8.5
		c-2.7,0-5.5-0.7-7.1-1.5c-0.3-0.1-0.5-0.5-0.4-0.8L27.8,59.9z"/>
	<path fill="#F47731" d="M55.5,39.3v4.3c0,0.4,0.3,0.7,0.7,0.7h3.5c0.4,0,0.7,0.3,0.7,0.7v2.5c0,0.4-0.3,0.7-0.7,0.7h-3.5
		c-0.4,0-0.7,0.3-0.7,0.7v8.3c0,2.5,0.7,3.8,2.6,3.8c0.5,0,0.9,0,1.3-0.1c0.4-0.1,0.8,0.3,0.8,0.7l0.1,2.6c0,0.3-0.2,0.6-0.5,0.7
		c-0.8,0.2-1.9,0.3-3.2,0.3c-1.9,0-3.5-0.6-4.5-1.7c-1.1-1.2-1.6-3-1.6-5.7v-8.9c0-0.4-0.3-0.7-0.7-0.7h-1.6c-0.4,0-0.7-0.3-0.7-0.7
		V45c0-0.4,0.3-0.7,0.7-0.7h1.6c0.4,0,0.7-0.3,0.7-0.7v-3.4c0-0.3,0.2-0.6,0.5-0.7l3.7-0.9C55,38.5,55.5,38.8,55.5,39.3z"/>
	<path fill="#F47731" d="M82.6,58.5c0,2.1,0.1,3.9,0.1,5.4c0,0.4-0.3,0.7-0.7,0.7h-3.2c-0.4,0-0.7-0.3-0.7-0.6L78,61.6h-0.1
		C77,63,75,65.1,71.3,65.1s-7.1-2.2-7.1-8.9V44.9c0-0.4,0.3-0.7,0.7-0.7h3.8c0.4,0,0.7,0.3,0.7,0.7v10.4c0,3.4,1.1,5.6,3.8,5.6
		c2.1,0,3.4-1.5,3.9-2.8c0.2-0.5,0.3-1,0.3-1.6V44.9c0-0.4,0.3-0.7,0.7-0.7h3.8c0.4,0,0.7,0.3,0.7,0.7
		C82.6,44.9,82.6,58.5,82.6,58.5z"/>
	<path fill="#F47731" d="M106.3,34.9c0.4,0,0.7,0.3,0.7,0.7V59c0,1.8,0.1,3.7,0.1,5c0,0.4-0.3,0.7-0.7,0.7h-3.2
		c-0.4,0-0.7-0.3-0.7-0.6l-0.2-2.6h-0.1c-1.2,2.3-3.7,3.7-6.7,3.7c-4.9,0-8.7-4.2-8.7-10.5c0-6.8,4.2-10.9,9.2-10.9
		c2.8,0,4.8,1.2,5.8,2.7h0.1v-11c0-0.4,0.3-0.7,0.7-0.7h3.7V34.9z M101.9,52.8c0-0.4,0-0.9-0.1-1.3c-0.5-2-2.1-3.7-4.5-3.7
		c-3.3,0-5.2,2.9-5.2,6.8c0,3.7,1.8,6.5,5.1,6.5c2.1,0,3.9-1.4,4.5-3.7c0.1-0.5,0.2-1,0.2-1.5V52.8z"/>
	<path fill="#F47731" d="M118.3,57.2l-2.1,7c-0.1,0.3-0.4,0.5-0.7,0.5h-3.9c-0.5,0-0.8-0.5-0.7-0.9l8.6-26.9
		c0.1-0.3,0.4-0.5,0.7-0.5h5.6c0.3,0,0.6,0.2,0.7,0.5l8.7,26.9c0.1,0.4-0.2,0.9-0.7,0.9h-4.1c-0.3,0-0.6-0.2-0.7-0.5l-2.3-7.1
		c-0.1-0.3-0.4-0.5-0.7-0.5h-8C118.7,56.7,118.4,56.9,118.3,57.2z M125.6,52.8c0.5,0,0.8-0.5,0.7-0.9l-1.9-6.1
		c-0.5-1.7-1-3.7-1.4-5.3h-0.1c-0.4,1.6-0.8,3.6-1.3,5.3l-1.9,6.1c-0.1,0.4,0.2,0.9,0.7,0.9H125.6z"/>
	<path fill="#F47731" d="M138.6,60.8c0.1-0.4,0.6-0.6,1-0.4c1.2,0.6,3,1.1,4.5,1.1c2.3,0,3.3-0.9,3.3-2.3c0-1.4-0.8-2.1-3.4-3
		c-4-1.4-5.7-3.6-5.6-6c0-3.6,3-6.4,7.7-6.4c1.9,0,3.7,0.4,4.9,1c0.3,0.1,0.5,0.5,0.4,0.8l-0.6,2.3c-0.1,0.4-0.6,0.6-0.9,0.5
		c-0.9-0.4-2.2-0.8-3.6-0.8c-1.8,0-2.9,0.9-2.9,2.1c0,1.3,1,1.9,3.6,2.9c3.7,1.3,5.4,3.2,5.5,6.3c0,3.7-2.9,6.4-8.3,6.4
		c-2.2,0-4.2-0.5-5.7-1.2c-0.3-0.1-0.4-0.5-0.4-0.8L138.6,60.8z"/>
	<path fill="#F47731" d="M156.2,60.8c0.1-0.4,0.6-0.6,1-0.4c1.2,0.6,3,1.1,4.5,1.1c2.3,0,3.3-0.9,3.3-2.3c0-1.4-0.8-2.1-3.4-3
		c-4-1.4-5.7-3.6-5.6-6c0-3.6,3-6.4,7.7-6.4c1.9,0,3.7,0.4,4.9,1c0.3,0.1,0.5,0.5,0.4,0.8l-0.6,2.3c-0.1,0.4-0.6,0.6-0.9,0.5
		c-0.9-0.4-2.2-0.8-3.6-0.8c-1.8,0-2.9,0.9-2.9,2.1c0,1.3,1,1.9,3.6,2.9c3.7,1.3,5.4,3.2,5.5,6.3c0,3.7-2.9,6.4-8.3,6.4
		c-2.2,0-4.2-0.5-5.7-1.2c-0.3-0.1-0.4-0.5-0.4-0.8L156.2,60.8z"/>
	<path fill="#F47731" d="M179.7,38.5c0,1.6-1.1,2.8-2.9,2.8c-1.7,0-2.9-1.2-2.9-2.8s1.2-2.8,2.9-2.8S179.6,36.9,179.7,38.5z
		 M174.1,64V44.9c0-0.4,0.3-0.7,0.7-0.7h3.8c0.4,0,0.7,0.3,0.7,0.7V64c0,0.4-0.3,0.7-0.7,0.7h-3.8C174.5,64.7,174.1,64.4,174.1,64z"
		/>
	<path fill="#F47731" d="M184.4,60.8c0.1-0.4,0.6-0.6,1-0.4c1.2,0.6,3,1.1,4.5,1.1c2.3,0,3.3-0.9,3.3-2.3c0-1.4-0.8-2.1-3.4-3
		c-4-1.4-5.7-3.6-5.6-6c0-3.6,3-6.4,7.7-6.4c1.9,0,3.7,0.4,4.9,1c0.3,0.1,0.5,0.5,0.4,0.8l-0.6,2.3c-0.1,0.4-0.6,0.6-0.9,0.5
		c-0.9-0.4-2.2-0.8-3.6-0.8c-1.8,0-2.9,0.9-2.9,2.1c0,1.3,1,1.9,3.6,2.9c3.7,1.3,5.4,3.2,5.5,6.3c0,3.7-2.9,6.4-8.3,6.4
		c-2.2,0-4.2-0.5-5.7-1.2c-0.3-0.1-0.4-0.5-0.4-0.8L184.4,60.8z"/>
	<path fill="#F47731" d="M208.3,39.3v4.3c0,0.4,0.3,0.7,0.7,0.7h3.5c0.4,0,0.7,0.3,0.7,0.7v2.5c0,0.4-0.3,0.7-0.7,0.7H209
		c-0.4,0-0.7,0.3-0.7,0.7v8.3c0,2.5,0.7,3.8,2.6,3.8c0.5,0,0.9,0,1.3-0.1c0.4-0.1,0.8,0.3,0.8,0.7l0.1,2.6c0,0.3-0.2,0.6-0.5,0.7
		c-0.8,0.2-1.9,0.3-3.2,0.3c-1.9,0-3.5-0.6-4.5-1.7c-1.1-1.2-1.6-3-1.6-5.7v-8.9c0-0.4-0.3-0.7-0.7-0.7H201c-0.4,0-0.7-0.3-0.7-0.7
		V45c0-0.4,0.3-0.7,0.7-0.7h1.6c0.4,0,0.7-0.3,0.7-0.7v-3.4c0-0.3,0.2-0.6,0.5-0.7l3.7-0.9C207.9,38.5,208.3,38.8,208.3,39.3z"/>
	<path fill="#F47731" d="M229.3,64.7c-0.3,0-0.6-0.3-0.7-0.6l-0.2-1.7h-0.1c-1.3,1.6-3.4,2.7-6,2.7c-4.1,0-6.4-3-6.4-6.1
		c0-5.2,4.6-7.8,12.1-7.7V51c0-1.3-0.5-3.6-4.2-3.6c-1.7,0-3.4,0.4-4.8,1.1c-0.4,0.2-0.8,0-1-0.4l-0.6-2c-0.1-0.3,0-0.7,0.3-0.8
		c1.6-0.8,4-1.5,6.9-1.5c6.6,0,8.4,4.2,8.4,8.6v7.4c0,1.5,0.1,3,0.2,4.2c0,0.4-0.3,0.8-0.7,0.8h-3.2V64.7z M228,55.4
		c0-0.4-0.3-0.7-0.7-0.7c-3.4,0-6.5,0.9-6.5,3.8c0,2,1.3,2.9,2.9,2.9c2.1,0,3.6-1.3,4-2.8c0.1-0.4,0.2-0.8,0.2-1.1v-2.1H228z"/>
	<path fill="#F47731" d="M238.5,50.3c0-2,0-3.8-0.1-5.4c0-0.4,0.3-0.7,0.7-0.7h3.2c0.4,0,0.7,0.3,0.7,0.6l0.2,2.4h0.1
		c0.9-1.6,3.1-3.5,6.5-3.5c3.6,0,7.3,2.3,7.3,8.8V64c0,0.4-0.3,0.7-0.7,0.7h-3.8c-0.4,0-0.7-0.3-0.7-0.7V53.1c0-2.9-1.1-5.2-3.9-5.2
		c-2.1,0-3.5,1.5-4,3c-0.2,0.5-0.2,1.1-0.2,1.7V64c0,0.4-0.3,0.7-0.7,0.7h-3.8c-0.4,0-0.7-0.3-0.7-0.7L238.5,50.3L238.5,50.3z"/>
	<path fill="#F47731" d="M268.2,39.3v4.3c0,0.4,0.3,0.7,0.7,0.7h3.5c0.4,0,0.7,0.3,0.7,0.7v2.5c0,0.4-0.3,0.7-0.7,0.7h-3.5
		c-0.4,0-0.7,0.3-0.7,0.7v8.3c0,2.5,0.7,3.8,2.6,3.8c0.5,0,0.9,0,1.3-0.1s0.8,0.3,0.8,0.7l0.1,2.6c0,0.3-0.2,0.6-0.5,0.7
		c-0.8,0.2-1.9,0.3-3.2,0.3c-1.9,0-3.5-0.6-4.5-1.7c-1.1-1.2-1.6-3-1.6-5.7v-8.9c0-0.4-0.3-0.7-0.7-0.7h-1.6c-0.4,0-0.7-0.3-0.7-0.7
		V45c0-0.4,0.3-0.7,0.7-0.7h1.6c0.4,0,0.7-0.3,0.7-0.7v-3.4c0-0.3,0.2-0.6,0.5-0.7l3.7-0.9C267.8,38.5,268.2,38.8,268.2,39.3z"/>
</g>
<g>
	<path fill="#F47731" d="M247.3,71.6c0.8,0,1.4,0.5,1.7,1.2l0.4,1.3c0.1,0.4,0.2,0.8,0.3,1.2l0,0c0.1-0.4,0.2-0.8,0.3-1.2l0.4-1.2
		c0.2-0.7,0.9-1.2,1.7-1.2l0,0l-1.9,4.9H249L247.3,71.6L247.3,71.6z"/>
	<path fill="#F47731" d="M253.6,74.4c0,0.9,0.7,1.3,1.5,1.3c0.6,0,1-0.1,1.3-0.2l0.2,0.8c-0.4,0.2-1,0.3-1.7,0.3
		c-1.6,0-2.5-1-2.5-2.5c0-1.3,0.8-2.6,2.4-2.6s2.1,1.3,2.1,2.4c0,0.2,0,0.4,0,0.5L253.6,74.4L253.6,74.4z M255.7,73.6
		c0-0.5-0.2-1.2-1-1.2s-1.1,0.7-1.1,1.2H255.7z"/>
	<path fill="#F47731" d="M257.9,73.2c0-0.7,0-1.1,0-1.6h1.1v0.9l0,0c0.2-0.7,0.8-1,1.3-1c0.1,0,0.2,0,0.3,0v1.2c-0.1,0-0.2,0-0.4,0
		c-0.6,0-1,0.4-1.1,0.9c0,0.1,0,0.2,0,0.4v2.5h-1.2L257.9,73.2L257.9,73.2z"/>
	<path fill="#F47731" d="M265.2,71.1L265.2,71.1l-1.2,0.6l-0.2-0.9l1.2-0.6c0.2-0.1,0.5-0.2,0.8-0.2h0.6v6.5h-1.2L265.2,71.1
		L265.2,71.1z"/>
	<path fill="#F47731" d="M268.7,75.8c0-0.5,0.3-0.8,0.8-0.8c0.4,0,0.8,0.3,0.8,0.8s-0.3,0.8-0.8,0.8C269,76.6,268.7,76.3,268.7,75.8
		z"/>
	<path fill="#F47731" d="M275.6,73.2c0,2.1-0.8,3.4-2.4,3.4c-1.5,0-2.3-1.4-2.3-3.3c0-2,0.9-3.4,2.4-3.4
		C274.9,69.9,275.6,71.3,275.6,73.2z M272.2,73.3c0,1.6,0.4,2.4,1.1,2.4s1.1-0.9,1.1-2.4s-0.4-2.4-1.1-2.4
		C272.6,70.8,272.1,71.6,272.2,73.3z"/>
</g>
</svg>
