<?xml version="1.0" encoding="utf-8"?>
<!-- Generator: Adobe Illustrator 17.1.0, SVG Export Plug-In . SVG Version: 6.00 Build 0)  -->
<!DOCTYPE svg PUBLIC "-//W3C//DTD SVG 1.1//EN" "http://www.w3.org/Graphics/SVG/1.1/DTD/svg11.dtd">
<svg version="1.1" id="Layer_1" xmlns="http://www.w3.org/2000/svg" xmlns:xlink="http://www.w3.org/1999/xlink" x="0px" y="0px"
	 viewBox="0 0 200 200" enable-background="new 0 0 200 200" xml:space="preserve">
<path fill="none" stroke="#F47731" stroke-miterlimit="10" d="M61.9,38.4c-26.1,0-47.3,19.7-47.3,44s21.2,44,47.3,44
	s47.3-19.7,47.3-44S88,38.4,61.9,38.4z M94,104.3H29.7v-6.8h64.5L94,104.3L94,104.3z M94,91.8H29.7V85h64.5L94,91.8L94,91.8z
	 M94,79.7H29.7v-6.8h64.5L94,79.7L94,79.7z M94,67.2H29.7v-6.8h64.5L94,67.2L94,67.2z"/>
<path fill="none" stroke="#F47731" stroke-miterlimit="10" d="M174.4,156.4l-30.8-36.5c-0.5-0.7-0.5-1.7,0-2.4l6.6-7.7
	c0.8-1,0.3-2.7-0.9-2.8l-17.9-2.1l-19.1-2.2c-0.9-0.1-1.6,0.8-1.5,1.8l1.8,22.6l1.7,21.1c0.1,1.4,1.6,2,2.4,1l6.6-7.7
	c0.6-0.7,1.4-0.6,2,0l30.8,36.5c0.5,0.7,1.4,0.7,2,0l16.4-19.3C174.9,158.1,174.9,157.1,174.4,156.4z"/>
</svg>
