<?xml version="1.0" encoding="utf-8"?>
<!-- Generator: Adobe Illustrator 17.1.0, SVG Export Plug-In . SVG Version: 6.00 Build 0)  -->
<!DOCTYPE svg PUBLIC "-//W3C//DTD SVG 1.1//EN" "http://www.w3.org/Graphics/SVG/1.1/DTD/svg11.dtd">
<svg version="1.1" id="Layer_1" xmlns="http://www.w3.org/2000/svg" xmlns:xlink="http://www.w3.org/1999/xlink" x="0px" y="0px"
	 viewBox="0 0 50 50" enable-background="new 0 0 50 50" xml:space="preserve">
<path id="path2" fill="none" stroke="#F47731" stroke-width="2" stroke-miterlimit="10" d="M25,1.5C12,1.5,1.5,12,1.5,25
	S12,48.5,25,48.5S48.5,38,48.5,25S38,1.5,25,1.5z M25.1,27H25c-0.6,0-1.1-0.5-1-1.1L25,3.3l1.1,22.5C26.1,26.4,25.7,27,25.1,27z
	 M26.5,29c-0.4-0.2-0.5-0.9-0.2-1.4l0.1-0.1c0.3-0.5,0.9-0.7,1.3-0.4l14.5,10.5L26.5,29z"/>
</svg>
